<!-- Generated by IcoMoon.io -->
<svg version="1.1" xmlns="http://www.w3.org/2000/svg" width="40" height="40" viewBox="0 0 40 40">
<title>google</title>
<path d="M3.978 11.178c0 2.988 0.998 5.144 2.964 6.41 1.612 1.040 3.48 1.196 4.452 1.196 0.236 0 0.426-0.012 0.558-0.020 0 0-0.308 2.008 1.18 3.992h-0.068c-2.578 0-10.986 0.538-10.986 7.454 0 7.032 7.722 7.39 9.272 7.39 0.122 0 0.194-0.004 0.194-0.004 0.016 0 0.126 0.004 0.316 0.004 0.994 0 3.564-0.124 5.95-1.286 3.096-1.5 4.666-4.118 4.666-7.77 0-3.528-2.392-5.628-4.138-7.164-1.066-0.938-1.988-1.746-1.988-2.532 0-0.8 0.674-1.402 1.524-2.164 1.378-1.23 2.678-2.984 2.678-6.3 0-2.914-0.378-4.872-2.708-6.114 0.242-0.124 1.102-0.214 1.526-0.274 1.262-0.172 3.108-0.368 3.108-1.398v-0.198h-9.198c-0.092 0.004-9.302 0.344-9.302 8.778zM18.826 29.204c0.176 2.812-2.23 4.886-5.844 5.148-3.67 0.27-6.69-1.382-6.866-4.192-0.086-1.352 0.508-2.672 1.67-3.726 1.178-1.066 2.796-1.726 4.556-1.856 0.208-0.012 0.414-0.024 0.62-0.024 3.398 0.002 5.698 1.998 5.864 4.65zM16.424 9.252c0.902 3.176-0.46 6.492-2.632 7.106-0.25 0.070-0.506 0.104-0.768 0.104-1.988 0-3.958-2.012-4.69-4.786-0.408-1.552-0.374-2.916 0.094-4.224 0.458-1.29 1.286-2.156 2.326-2.45 0.25-0.070 0.508-0.106 0.77-0.106 2.4 0 3.944 0.996 4.9 4.356zM32 16v-6h-4v6h-6v4h6v6h4v-6h6v-4h-6z"></path>
</svg>
