<!-- Generated by IcoMoon.io -->
<svg version="1.1" xmlns="http://www.w3.org/2000/svg" width="40" height="40" viewBox="0 0 40 40">
<title>instagram</title>
<path d="M34 2h-28c-2.2 0-4 1.8-4 4v28c0 2.202 1.8 4 4 4h28c2.2 0 4-1.798 4-4v-28c0-2.2-1.8-4-4-4zM19.968 31.046c6.118 0 11.076-4.962 11.076-11.078 0-0.676-0.086-1.328-0.206-1.968h3.162v14.432c0 0.764-0.62 1.38-1.386 1.38h-25.228c-0.766 0-1.386-0.616-1.386-1.38v-14.432h3.098c-0.122 0.64-0.208 1.292-0.208 1.968 0 6.118 4.962 11.078 11.078 11.078zM13.046 19.968c0-3.824 3.1-6.922 6.924-6.922 3.822 0 6.924 3.098 6.924 6.922s-3.102 6.924-6.924 6.924c-3.826 0-6.924-3.1-6.924-6.924zM32.614 12h-3.23c-0.764 0-1.384-0.624-1.384-1.384v-3.234c0-0.764 0.62-1.382 1.382-1.382h3.23c0.768 0 1.388 0.618 1.388 1.382v3.232c0 0.762-0.62 1.386-1.386 1.386z"></path>
</svg>
