<!-- Generated by IcoMoon.io -->
<svg version="1.1" xmlns="http://www.w3.org/2000/svg" width="40" height="40" viewBox="0 0 40 40">
<title>linkedin</title>
<path d="M10 6c0 2.124-1.42 3.952-4.002 3.952-2.43 0-3.998-1.724-3.998-3.848 0-2.18 1.52-4.104 4-4.104s3.952 1.82 4 4zM2 38v-26h8v26h-8z"></path>
<path d="M14 20.888c0-3.090-0.102-5.672-0.204-7.902h7.188l0.356 3.446h0.152c1.012-1.622 3.492-4 7.644-4 5.064 0 8.864 3.39 8.864 10.684v14.884h-8v-13.722c0-3.188-1.214-5.62-4-5.62-2.124 0-3.188 1.72-3.746 3.138-0.204 0.508-0.254 1.216-0.254 1.926v14.278h-8v-17.112z"></path>
</svg>
