<!-- Generated by IcoMoon.io -->
<svg version="1.1" xmlns="http://www.w3.org/2000/svg" width="40" height="40" viewBox="0 0 40 40">
<title>pinterest</title>
<path d="M17.234 26.454c-1.052 5.508-2.334 10.788-6.136 13.546-1.172-8.324 1.722-14.574 3.068-21.21-2.294-3.86 0.276-11.624 5.11-9.71 5.95 2.352-5.152 14.344 2.3 15.844 7.782 1.562 10.958-13.5 6.132-18.398-6.97-7.076-20.292-0.166-18.652 9.964 0.398 2.476 2.956 3.226 1.022 6.644-4.462-0.988-5.794-4.508-5.622-9.2 0.276-7.68 6.898-13.054 13.542-13.8 8.402-0.942 16.288 3.086 17.378 10.988 1.226 8.922-3.792 18.586-12.778 17.89-2.436-0.19-3.456-1.398-5.364-2.558z"></path>
</svg>
