<!-- Generated by IcoMoon.io -->
<svg version="1.1" xmlns="http://www.w3.org/2000/svg" width="40" height="40" viewBox="0 0 40 40">
<title>twitter</title>
<path d="M34.632 12.492c0.016 0.324 0.022 0.652 0.022 0.976 0 9.98-7.594 21.484-21.48 21.484-4.266 0-8.232-1.25-11.574-3.394 0.592 0.070 1.192 0.106 1.8 0.106 3.54 0 6.794-1.208 9.376-3.23-3.302-0.062-6.092-2.242-7.052-5.242 0.46 0.086 0.934 0.132 1.42 0.132 0.69 0 1.358-0.090 1.99-0.262-3.454-0.696-6.056-3.746-6.056-7.406 0-0.032 0-0.062 0-0.094 1.018 0.566 2.184 0.906 3.42 0.946-2.026-1.356-3.36-3.664-3.36-6.286 0-1.382 0.372-2.68 1.024-3.796 3.722 4.57 9.288 7.574 15.562 7.89-0.128-0.554-0.194-1.128-0.194-1.722 0-4.168 3.378-7.546 7.548-7.546 2.172 0 4.134 0.914 5.512 2.382 1.718-0.34 3.334-0.968 4.794-1.832-0.564 1.762-1.762 3.242-3.32 4.176 1.528-0.184 2.98-0.586 4.336-1.188-1.012 1.516-2.292 2.844-3.768 3.906z"></path>
</svg>
