<svg aria-hidden="true" style="position: absolute; width: 0; height: 0; overflow: hidden;" version="1.1" xmlns="http://www.w3.org/2000/svg" xmlns:xlink="http://www.w3.org/1999/xlink">
<defs>
<symbol id="icon-right-quote" viewBox="0 0 32 32">
<title>right-quote</title>
<path d="M0 4v12h8c0 4.41-3.586 8-8 8v4c6.617 0 12-5.383 12-12v-12h-12zM20 4v12h8c0 4.41-3.586 8-8 8v4c6.617 0 12-5.383 12-12v-12h-12z"></path>
</symbol>
<symbol id="icon-left-quote" viewBox="0 0 32 32">
<title>left-quote</title>
<path d="M32 28v-12h-8c0-4.41 3.586-8 8-8v-4c-6.617 0-12 5.383-12 12v12h12zM12 28v-12h-8c0-4.41 3.586-8 8-8v-4c-6.617 0-12 5.383-12 12v12h12z"></path>
</symbol>
</defs>
</svg>
